<?xml version="1.0" encoding="utf-8"?>
<!-- Generator: Adobe Illustrator 16.0.0, SVG Export Plug-In . SVG Version: 6.00 Build 0)  -->
<!DOCTYPE svg PUBLIC "-//W3C//DTD SVG 1.1//EN" "http://www.w3.org/Graphics/SVG/1.1/DTD/svg11.dtd">
<svg version="1.1" id="Layer_1" xmlns="http://www.w3.org/2000/svg" xmlns:xlink="http://www.w3.org/1999/xlink" x="0px" y="0px"
	 width="283.46px" height="283.46px" viewBox="0 0 283.46 283.46" enable-background="new 0 0 283.46 283.46" xml:space="preserve">
<linearGradient id="SVGID_1_" gradientUnits="userSpaceOnUse" x1="141.73" y1="3.0771" x2="141.73" y2="283.4606">
	<stop  offset="0" style="stop-color:#F4F5F8"/>
	<stop  offset="1" style="stop-color:#E9ECF1"/>
</linearGradient>
<path fill="url(#SVGID_1_)" d="M283.46,253.44c0,10.523-10.14,30.02-22.643,30.02H22.645C10.139,283.46,0,263.964,0,253.44V18.598
	C0,8.072,10.139-0.462,22.645-0.462h238.173c12.503,0,22.643,8.535,22.643,19.061V253.44z"/>
<path fill="#5A6B7A" d="M190.225,232.201c-39.997,0-21.694-37.52-15.921-50.717c5.773-13.193,35.534-12.339,32.824-90.711
	c-1.725-49.843-32.091-60.467-59.481-59.748c-15.662-0.354-69.221,0.637-71.312,61.112c-2.71,78.372,27.051,77.519,32.824,90.714
	c5.771,13.193,24.077,50.719-15.921,50.719c-39.995,0-49.891,49.888-49.891,49.888l196.767-1.364
	C240.113,282.095,230.22,232.201,190.225,232.201z"/>
<g>
</g>
<g>
</g>
<g>
</g>
<g>
</g>
<g>
</g>
<g>
</g>
</svg>
