<?xml version="1.0" encoding="utf-8"?>
<!-- Generator: Adobe Illustrator 16.0.0, SVG Export Plug-In . SVG Version: 6.00 Build 0)  -->
<!DOCTYPE svg PUBLIC "-//W3C//DTD SVG 1.1//EN" "http://www.w3.org/Graphics/SVG/1.1/DTD/svg11.dtd">
<svg version="1.1" id="Layer_1" xmlns="http://www.w3.org/2000/svg" xmlns:xlink="http://www.w3.org/1999/xlink" viewBox="0 0 428.979 415.479" enable-background="new 0 0 428.979 415.479" xml:space="preserve" preserveAspectRatio="xMidYMid meet">
<path fill="#FFFFFF" stroke="#D89343" stroke-width="8.2944" stroke-miterlimit="10" d="M416.686,132.167
	c-1.357-10.888-26.346-51.42-86.083-51.42c-9.425,0-19.435,1.002-29.757,2.976c-0.225,0.044-0.448,0.112-0.66,0.199
	c-0.921,0.417-1.768,0.803-2.527,1.213c-8.853-7.264-18.75-13.117-29.495-17.524c0.124-0.361,0.248-0.722,0.398-1.077
	c11.691-2.508,20.48-12.917,20.48-25.349c0-14.299-11.629-25.928-25.934-25.928c-14.294,0-25.923,11.629-25.923,25.928
	c0,7.614,3.313,14.449,8.554,19.199c-0.024,0.118-0.05,0.242-0.074,0.36c-9.412-1.948-19.273-2.957-29.504-2.957
	c-10.44,0-20.457,0.996-29.981,2.926c-0.088-0.398-0.168-0.797-0.243-1.195c4.694-4.694,7.607-11.181,7.607-18.334
	c0-14.299-11.629-25.934-25.928-25.934s-25.934,11.635-25.934,25.934c0,12.843,9.4,23.513,21.676,25.555
	c0.087,0.23,0.174,0.46,0.261,0.703c-10.87,4.376-20.823,10.19-29.626,17.425c-0.61-0.312-1.276-0.623-1.999-0.946
	c-0.211-0.087-0.429-0.155-0.653-0.199c-10.328-1.974-20.338-2.976-29.763-2.976c-59.777,0-84.775,40.533-86.139,51.42
	c-0.13,1.058,0.031,2.689,1.554,4.42c4.556,5.154,20.095,9.045,36.146,9.045c11.125,0,30.451-1.88,46.92-13.03
	c-5.917,15.433-9.008,32.577-9.008,50.292c0,41.435,29.893,73.298,47.71,88.613c25.417,21.826,56.524,36.506,77.398,36.506
	c42.278,0,125.111-56.65,125.111-125.119c0-17.689-3.212-34.877-9.388-50.421c16.509,11.268,35.945,13.16,47.112,13.16
	c16.049,0,31.588-3.891,36.144-9.045C416.661,134.856,416.823,133.226,416.686,132.167z"/>
<g id="path2813">
	<path fill="#FFFFFF" d="M329.039,191.639c-17.798-4.073-39.234,1.458-48.947,7.983c-2.731,4.639,10.036,27.288,7.148,28.678
		c-3.647,0.973-16.562,10.812-18.149,13.316c-1.092,2.46-21.065-12.093-27.468-10.777c-12.247,13.075-25.661,39.465-26.371,54.057
		c2.32,5.296,29.69,3.015,29.071,6.699c-1.303,4.207,0.377,21.065,1.771,23.457c1.632,1.852-21.469,14.993-23.067,20.8
		c6.531,14.905,20.959,32.683,32.496,40.628c5.774,1.188,18.908-22.305,21.671-20.373c2.85,3.034,18.774,9.618,21.766,9.487
		c2.527-0.703,1.659,26.259,8.288,32.23c19.982,2.762,41.527-4.315,51.875-11.443c2.881-4.773-11.12-26.415-8.085-27.92
		c3.864-1.155,17.016-11.083,18.511-13.472c1.007-2.334,22.008,10.659,29.356,9.009c12.656-12.99,23.307-36.955,22.814-50.34
		c-2.846-4.803-30.437-2.628-30.01-6.126c1.013-3.938-1.74-19.804-3.234-22.104c-1.701-1.846,19.422-12.944,21.145-18.886
		c-7.37-13.735-21.206-31.906-32.192-40.305c-5.392-1.601-17.155,20.084-19.857,18.116c-2.772-3.089-17.827-10.544-20.614-10.627
		C334.632,224.202,334.6,197.944,329.039,191.639z M326.777,267.561c14.587,3.996,23.723,19.071,20.229,33.864
		c-3.526,14.794-18.789,24.003-33.929,20.425c-15.169-3.604-24.015-18.965-19.956-34.125
		C297.21,272.548,312.189,263.602,326.777,267.561z"/>
	<path fill="none" stroke="#D89343" stroke-width="8.2944" stroke-miterlimit="10" d="M329.039,191.639
		c-17.798-4.073-39.234,1.458-48.947,7.983c-2.731,4.639,10.036,27.288,7.148,28.678c-3.647,0.973-16.562,10.812-18.149,13.316
		c-1.092,2.46-21.065-12.093-27.468-10.777c-12.247,13.075-25.661,39.465-26.371,54.057c2.32,5.296,29.69,3.015,29.071,6.699
		c-1.303,4.207,0.377,21.065,1.771,23.457c1.632,1.852-21.469,14.993-23.067,20.8c6.531,14.905,20.959,32.683,32.496,40.628
		c5.774,1.188,18.908-22.305,21.671-20.373c2.85,3.034,18.774,9.618,21.766,9.487c2.527-0.703,1.659,26.259,8.288,32.23
		c19.982,2.762,41.527-4.315,51.875-11.443c2.881-4.773-11.12-26.415-8.085-27.92c3.864-1.155,17.016-11.083,18.511-13.472
		c1.007-2.334,22.008,10.659,29.356,9.009c12.656-12.99,23.307-36.955,22.814-50.34c-2.846-4.803-30.437-2.628-30.01-6.126
		c1.013-3.938-1.74-19.804-3.234-22.104c-1.701-1.846,19.422-12.944,21.145-18.886c-7.37-13.735-21.206-31.906-32.192-40.305
		c-5.392-1.601-17.155,20.084-19.857,18.116c-2.772-3.089-17.827-10.544-20.614-10.627
		C334.632,224.202,334.6,197.944,329.039,191.639z M326.777,267.561c14.587,3.996,23.723,19.071,20.229,33.864
		c-3.526,14.794-18.789,24.003-33.929,20.425c-15.169-3.604-24.015-18.965-19.956-34.125
		C297.21,272.548,312.189,263.602,326.777,267.561z"/>
</g>
</svg>
