<?xml version="1.0" encoding="utf-8"?>
<!-- Generator: Adobe Illustrator 13.0.0, SVG Export Plug-In . SVG Version: 6.00 Build 14948)  -->
<!DOCTYPE svg PUBLIC "-//W3C//DTD SVG 1.1//EN" "http://www.w3.org/Graphics/SVG/1.1/DTD/svg11.dtd">
<svg version="1.1" id="house" xmlns="http://www.w3.org/2000/svg" xmlns:xlink="http://www.w3.org/1999/xlink" x="0px" y="0px"
	 width="296px" height="218px" viewBox="0 0 296 218" enable-background="new 0 0 296 218" xml:space="preserve">
<g>
	<path d="M59.405,157.288h7.113c0,0,2.085-0.49,1.964,1.594v12.879c0,0,0.489,2.084-1.594,2.573h-7.973c0,0-1.719-0.121-1.595-2.207
		v-13.124C57.32,159.003,56.831,157.657,59.405,157.288z M60.02,165.504h2.207v-4.292H60.02V165.504z M64.558,165.628h2.208v-4.416
		h-2.208V165.628z M64.558,172.004h2.085v-4.537H64.68L64.558,172.004z M62.351,167.345H60.02v4.539h2.331V167.345z"/>
	<path d="M25.311,190.645c0,0-1.104-7.235,6.5-7.356c0,0,1.227-4.171,5.149-3.802l-0.121,0.98c0,0-3.924,3.189-3.681,5.64
		c0,0-4.782-1.471-6.746,4.538H25.311z"/>
	<path d="M30.584,190.645c0,0,0.123-5.884,6.625-3.063v0.733c0,0-4.908-0.733-5.89,2.33H30.584z"/>
	<path d="M24.084,191.137c0,0,31.765-0.614,112.584-0.737c0,0,0.982,1.719-0.366,2.086l-113.198,0.245
		C23.104,192.731,22.367,191.75,24.084,191.137z"/>
	<path d="M46.528,196.046c35.276,0.071,68.648-0.247,101.793-0.17c0.344,0,0.751,1.233,0.609,1.235
		c-31.085,0.49-62.143,1.384-93.187,0.505c-13.963-0.395-36.076,1.248-33.745-1.697C30.179,195.919,38.349,196.033,46.528,196.046z"
		/>
	<path d="M177.39,196.288c13.25,0,26.479-0.154,39.732,0.076c0.348,0.006,0.278,0.988,0.112,0.997
		c-21.084,0.769-37.394,0.644-56.518,0.119c-0.159-0.003-1.354-1.316,0.235-1.24C166.356,196.492,171.986,196.288,177.39,196.288z"
		/>
	<path d="M249.5,197.162c4.258-0.024,8.521,0.008,12.723,0.419c0.825,0.08,2.411-0.411,2.851,1.161
		c1.845-1.474,7.1-1.503,10.495-1.904c1.136-0.134,0.188,2.24-1.096,2.773c-0.649,0.265-1.308-0.701-1.917-0.729
		c-5.07-0.252-10.189,0.263-15.177-0.065c-10.352-0.68-17.445,0.78-31.182-1.18c-1.225-1.595,3.097-0.917,4.173-0.924
		C236.299,196.669,243.177,197.2,249.5,197.162z"/>
	<path d="M51.802,203.648c-1.8,0.013-3.434,0.366-5.396,0c-3.188-1.227-0.656-1.8-0.351-1.803c2.926-0.038,60.792-0.81,92.071,0.242
		c7.529,0.253,15.107,0.149,22.575,0.095c1.04-0.005,2.934,0.063,3.944,0.044c23.469-0.406,47.018-1.21,70.605,0.344
		c11.329,0.749,22.562,0.876,33.871,1.154c0.348,0.008,0.629,0.745,0.487,0.747C269.329,204.473,52.085,203.645,51.802,203.648z"/>
	<path d="M37.698,191.015l0.366-31.273l-2.818-0.247c0,0-0.859-0.857,0.489-1.47l20.238-26.493c0,0,0.244-0.245,0.98-1.838
		l0.123-9.075c0,0,0.368-1.474,1.227-1.474c0.858,0,1.717-0.123,1.717-0.123s0.735-0.367,0.856-0.859
		c0.123-0.488,0.123-3.063,0.123-3.063s4.906-4.416,9.812,1.47l0.123,2.332l0.369,9.933c0,0-0.124,1.962,0.613,2.697
		c0.737,0.735,18.396,26.244,18.396,26.244h-3.063L69.83,132.639c0,0-0.981-0.371-0.735-2.697c0.245-2.333,0.123-6.625,0.123-6.625
		s0.245-1.349-1.348-1.47c-1.596-0.123-6.994,0-6.994,0s-1.836-0.492-1.836,2.33c0,2.818,0.121,5.396,0.121,5.396
		s0,3.187-1.348,4.29c-1.351,1.106-17.417,23.058-17.417,23.058l-0.49,34.216 M66.888,119.268l0.48-1.212l-0.725-1.118h-2.332
		c-0.614-0.368-2.245,1.08-1.106,1.84c1.106,0.738,1.106,0.738,1.106,0.738L66.888,119.268z"/>
	<path d="M70.933,118.902l3.803,1.593c0,0,0.613,0.368,0.735,1.229c0.123,0.856-0.123,4.043-0.123,4.043s0.245,0.863,1.227,1.351
		c0.981,0.49,9.565,0.858,9.565,0.858l26.858,31.396c0,0,0.247,1.227-0.613,1.595c-0.859,0.369-24.159,0.123-24.159,0.123
		s-1.229-0.368-0.98,0.859c0.245,1.225-0.982,27.717-0.125,28.696H84.18c0,0,1.103-18.761,0.734-31.395c0,0,0.369-1.348,2.333-1.474
		c1.958-0.119,20.357,0,20.357,0s0.982-0.366,0.121-0.979c-0.858-0.614-21.338-25.143-21.338-25.143s-0.492-1.103-1.474-1.348
		c-0.98-0.247-9.565-1.104-9.565-1.104s-1.715,0.123-2.085-1.839c-0.367-1.96-0.123-3.065-0.123-3.065s0.123-1.962-2.452-1.351"/>
	<path d="M88.474,190.645l0.489-24.404c0,0,0.612-1.719,1.594,0l-0.247,24.651L88.474,190.645z"/>
	<path d="M92.274,190.892l0.245-24.651c0,0,0.735-1.348,2.083,0l-0.244,24.529"/>
	<path d="M98.895,190.522l-2.084,0.123l0.368-24.651c0,0,1.229-0.856,1.717,0V190.522z"/>
	<path d="M101.104,190.522v-24.528c0,0,1.225-0.979,1.715,0l0.247,23.55c0,0-0.247,0.49,0.366,0.979"/>
	<path d="M107.359,190.645h-2.576c0,0,0.368-0.611,0.243-2.204l0.492-22.201c0,0,0.859-1.225,1.716,0L107.359,190.645z"/>
	<path d="M112.509,190.4h-3.189c0,0,0.123,0,0.613-1.346v-20.852c0,0-0.119-1.227-0.49-1.227c-0.366,0-1.47-3.679-0.733-1.96
		c0,0,0.121-4.54-0.983-4.171l3.434-0.123l-0.245,3.926c0,0-0.247,1.47,1.35,1.96l-0.123,22.199c0,0-0.245,1.227,0.735,1.715"/>
	<path d="M116.065,190.645h-2.084l0.614-24.527c0,0,0.733-1.103,1.47-0.124C116.802,166.976,116.065,190.645,116.065,190.645z"/>
	<g>
		<rect x="120.727" y="190.645" width="0" height="0"/>
	</g>
	<path d="M120.727,190.645h-2.454l0.616-24.527c0,0,1.225-1.103,1.959-0.124c0,0-0.613,24.161-0.121,25.021"/>
	<path d="M105.026,142.57v-10.302c0,0-0.182-1.594,0.861-1.47c1.042,0.124,4.598,0,4.598,0s1.531-0.245,1.286,1.47v10.426
		c0,0,0.245,1.103-0.857,1.166h-4.845C106.07,143.86,104.906,144.043,105.026,142.57z M109.933,135.642
		c0.063-0.368-0.368-0.492-0.368-0.492s-1.166,0.124-1.533,0.064c-0.366-0.064-0.488,0.305-0.488,0.305l0.061,4.724l0.121,0.364
		c0,0,1.288,0.185,1.717,0.063c0.431-0.123,0.431-0.492,0.431-0.492S109.873,136.01,109.933,135.642z"/>
	<path d="M147.833,137.666c0,0,0.303-1.656,2.019-0.858c1.722,0.798,10.918,5.396,10.918,5.396s0.934,0.794,1.04,1.288
		c0.123,0.551,0.06,5.886,0.06,5.886s-0.301,0.796-0.98,0.92c-0.672,0.121-10.915-0.982-10.915-0.982s-1.652-0.124-2.02-1.104
		L147.833,137.666z M150.53,145.944c0.123,0.611,0.487,0.55,0.487,0.55l7.789,1.843c1.04,0,0.794-1.229,0.794-1.229
		s-0.056-1.778-0.056-2.146c0-0.366-0.431-0.798-0.431-0.798s-6.62-3.126-7.606-3.557c-0.977-0.429-0.92,0.616-0.92,0.616
		L150.53,145.944z"/>
	<path d="M151.262,146.555l-0.06-2.758c0,0-0.251-0.919,1.043-1.287h1.778l0.06,1.472c0,0-2.143-1.043-1.589,2.882L151.262,146.555z
		"/>
	<path d="M154.514,142.017v4.848l1.533,0.182l-0.06-1.594c0,0,0.424-0.856,0.977,0v1.841l1.354,0.427l0.06-3.005
		c0,0-0.735-1.346-2.086-0.733v-1.227L154.514,142.017z"/>
	<path d="M141.45,131.167v-16.803c0,0,0.126-1.72,1.351-1.593h10.792c0,0,1.474-0.247,1.712,1.469v17.909
		c0,0-0.238,1.225-1.344,1.348h-11.038C142.924,133.496,141.333,133.251,141.45,131.167z M145.01,119.391
		c0,0,1.717,0.369,2.331,0.249c0.613-0.123,0.858-0.616,0.858-0.616s-0.245-1.103-0.123-1.715c0.123-0.614-0.614-0.737-0.614-0.737
		l-2.33,0.123L145.01,119.391z M145.133,125.403c0,0,1.349,0.121,2.083,0c0.738-0.124,0.738-0.616,0.738-0.616s0.123-1.962,0-2.451
		c-0.121-0.49-0.738-0.49-0.738-0.49l-2.083,0.121V125.403z M145.133,131.167l1.96,0.121l0.74-0.366c0,0-0.123-2.086-0.123-2.576
		c0-0.492-0.369-0.613-0.369-0.613s-1.351,0.121-1.839,0c-0.492-0.124-0.492,0.488-0.492,0.488L145.133,131.167z M150.408,119.268
		c0.368,0.861,1.898,0.492,1.348,0.492c0.857,0,1.229,0,1.229-0.369c0-0.368,0.119-1.839-0.371-2.573
		c-0.49-0.735-0.735-0.124-1.474-0.247c-0.732-0.123-0.609,0.611-0.609,0.611S149.852,117.983,150.408,119.268z M150.408,125.279
		l2.328-0.123c0.368-1.104,0-3.189,0-3.189s-1.229,0-1.719-0.121c-0.487-0.123-0.609,0.368-0.609,0.368V125.279z M150.653,131.288
		l1.341,0.124c0.619,0,0.801-0.445,0.868-1.104c0.123-1.227,0.123-1.841,0.123-1.841c0-0.612-0.613-0.733-0.613-0.733l-1.841,0.121
		L150.653,131.288z"/>
	<path d="M155.802,159.619c0,0-1.599,3.678-1.354,5.396v18.641c0,0-0.486,2.084,2.086,1.472h9.938l0.123,2.699
		c0,0,0-0.492-2.086-0.245h-26.613c0,0-1.962,0.121-2.205,1.104c-0.517,2.056,0.184-4.295,0.184-4.295s1.407,0.613,4.108,0.984
		h8.463c0,0,0.732-0.123,0.616-2.822v-17.172c0,0-0.616-5.64,5.266-9.074c5.891-3.436,11.537-0.369,12.024,1.35l-0.123,3.188
		c0,0-4.295-6.989-10.795-0.98 M151.14,165.749v14.963c0.245,1.965-0.123,3.189-0.123,3.189s0.368,0.49,1.229-0.121
		c0.858-0.614,0.616-3.313,0.616-3.313v-15.697c-0.249-0.982,0.364-3.926,0.364-3.926C151.14,159.985,151.14,165.749,151.14,165.749
		z"/>
	<path d="M159.846,165.138h2.699c0,0,0.798-0.184,0.798,0.796v1.776c0,0-0.063,0.739-0.914,0.739h-2.46c0,0-0.854,0.245-0.854-0.861
		v-1.715C159.114,165.873,159.236,165.138,159.846,165.138z"/>
	<path d="M173.463,148.58c1.964,0.737,2.086,1.595,2.086,1.595h1.715c0,0,1.596,0.245,2.208,1.35c0.613,1.104,0.977,1.47,0.977,1.47
		s-0.119,1.104-0.732,1.47c-0.612,0.371,0,34.342,0,34.342s-0.497,0.859,0.854,1.348c2.129,0.775,51.515,0.245,51.515,0.245
		l0.242,2.454h-64.757c0,0-1.897-0.689-1.345-1.47V153.61c0,0,0.245-0.738-0.364-1.72c-0.619-0.98-1.6-1.224,0-1.96l2.57,0.245
		c0,0,1.305-0.431,1.967-1.348c1.222-1.719,0.487,0.123,0.364-1.596c-0.123-1.715-1.351-1.226-0.739-5.886
		c0,0-4.53-1.962-0.977-2.696h5.884c0,0,3.434,0.489,0.245,2.328c-3.192,1.839-1.431-1.338-1.103,0.613
		c0.123,0.737-0.245,3.67-0.858,5.765C173.218,147.355,172.973,148.398,173.463,148.58z M175.549,182.186h-1.964
		c-2.821,0.121-1.474-2.699-1.474-2.699h3.066c0.735-0.247,0.735-0.735,0.735-0.735v-5.274c-0.119-1.104-0.98-1.104-0.98-1.104
		h-2.206c-1.47-0.123-0.864-2.207-0.864-2.207h3.438c0.613-0.124,0.494-0.492,0.494-0.492v-7.111
		c0.119-0.737-0.739-0.737-0.739-0.737h-2.699c-1.47-1.471,0-2.454,0-2.454s2.576,0,3.07-0.243c0.487-0.247,0.732-1.104,0.732-1.104
		s0-3.189-0.245-4.048c-0.242-0.859-0.613-0.737-0.613-0.737s-5.023-0.123-6.129,0c-1.103,0.123-0.676,1.596-0.676,1.596
		s-0.126,32.563-0.126,33.788s1.166,1.411,1.166,1.411l6.014-0.124V182.186z"/>
	<path d="M135.874,190.953l-13.493-0.492l0.369-36.179c0,0,0-1.717-0.489-1.593c-0.492,0.123-3.313-3.926,0.489-3.189l2.207,0.243
		c0,0,0.368-1.96,1.598-1.96c0,0,0.611-0.737-0.248-1.594c0,0-0.614-4.415-0.368-4.537c0.243-0.124-1.719-1.104-2.084-1.349
		c-0.37-0.245-0.982-1.964,0.366-2.208c1.353-0.245,7.239,0,7.239,0s2.94,1.226-0.368,2.697c0,0-1.108,0.245-0.982,1.104
		c0.121,0.858-0.126,4.047-0.492,4.292c-0.369,0.245-0.613,1.104,0,1.474c0.613,0.364,1.348,1.101,1.474,1.958
		c0.121,0.859,2.452,0.123,2.452,0.123s0.697,0.032,0.98,0.37c0.919,1.106,2.328,2.331,2.328,2.331s0.983,0.856-0.243,1.593
		l-0.49,0.154c0,0-0.492-0.032-0.245,0.215v36.425 M132.256,190.522c0,0,0.119-5.762,0.119-7.234s-0.244-0.859-2.328-1.103
		c-2.084-0.247-1.474-0.737-1.474-0.737l0.124-1.595c0,0,3.067,0.124,3.434-0.123c0.37-0.245,0.613-0.98,0.613-0.98
		s-0.243-3.928-0.121-5.153c0.121-1.226-1.35-1.348-3.068-1.348c-1.715,0-0.858-1.965-0.858-1.965s3.189,0,3.678-0.119
		c0.492-0.124,0.249-1.227,0.249-1.227l-0.368-7.358l-3.315-0.492l-0.121-1.717c0,0,2.577,0,3.191-0.123
		c0.613-0.121,0.856-1.962,0.856-1.962l-0.243-3.802c0,0-5.275,0-6.009-0.124c-0.737-0.123-0.982,0.983-0.982,0.983l-0.37,36.054
		L132.256,190.522z"/>
	<g>
		<rect x="121.584" y="92.412" width="0" height="0"/>
		<path d="M121.584,92.412"/>
	</g>
	<path d="M115.943,82.72h8.339c0,0,1.104-0.243,1.104,0.984V96.95c0,0,0,0.488-0.735,0.733h-9.443c0,0-0.737,0.124-0.858-0.859
		V83.582C114.35,83.582,114.84,82.601,115.943,82.72z M117.046,89.345c0,0,1.719,0.123,2.208-0.121
		c0.489-0.247,0.489-0.738,0.489-0.738s0.125-1.47,0-1.962c-0.123-0.492-0.611-0.857-0.611-0.857l-2.086,0.123V89.345z
		 M121.584,89.1h1.841l0.245-2.207l-0.488-0.737l-1.72-0.244L121.584,89.1z M117.292,94.864h2.207c0,0,0.121-1.595,0-2.086
		c-0.123-0.488-0.611-0.735-0.611-0.735l-1.719,0.123L117.292,94.864z M121.096,92.042l0.244,2.945l1.472,0.123
		c0,0,0.492-0.612,0.614-0.983c0.121-0.368-0.123-2.084-0.123-2.084H121.096z"/>
	<path d="M144.765,83.825c0,0-0.369-1.224,1.348-1.224h8.587c0,0,2.083-0.49,2.206,1.838v10.549c0,0-0.245,0.98-1.103,1.226h-9.689
		c0,0-1.474-0.123-1.348-1.962V83.825z M147.462,92.165c1.104,2.823,2.82,0.124,2.82,0.124v-5.766c-1.96-2.084-2.694,0-2.694,0
		L147.462,92.165z M151.994,92.289c1.477,2.699,2.706,0,2.706,0v-5.766c-1.964-2.084-2.706,0.125-2.706,0.125V92.289z"/>
	<path d="M85.896,128.466l11.774-13.981l0.613-1.348l0.982-35.566c0,0,0.245-0.614-0.49-0.857c-0.737-0.245,3.066,0,3.066,0
		s-0.369,0.367-0.369,0.857c0,0.492-0.247,35.2-0.247,35.2s0.247,1.96-0.858,3.065l-11.529,13.122c0,0-0.737,1.839-0.243,2.697
		C89.085,132.514,85.896,128.466,85.896,128.466z"/>
	<path d="M94.236,76.713c0,0-3.555-0.245-1.104-3.56c0,0,42.681-30.168,43.537-30.046c0.861,0.123,13.495-10.916,14.839-11.527
		c1.354-0.612,1.354-1.715,2.086-2.575v-6.378c0,0,0.245-2.33,1.232-2.207h3.063v7.605c0,0,0.732,2.575,1.957,3.312
		c1.232,0.735,25.145,26.244,25.876,26.121c0.745-0.122,0.987,1.717,1.967-0.122l0.368-2.822c0,0,0.242-2.575,1.718-2.33
		c1.471,0.245,2.696,0,2.696,0s-0.245-1.841,1.593-1.593c0,0-0.245-0.983,1.232-0.859v-1.596c0,0,0-0.858,0.977-0.735h4.414
		c0,0,1.232-0.243,1.348,0.859v8.461c0,0-0.242,0.492,0.249,1.227l1.593,1.841l0.245,13.245c0,0,0,1.962,0.858,2.083l8.838,8.587
		c0,0,2.08,2.084-0.126,2.697h-2.208c0,0-0.861,0-0.861,1.348c0,1.351,1.106,42.436,1.106,42.436l-2.696,0.123l-0.987-46.603
		l-3.066-1.84c0,0-1.474-0.982-1.474,0.49c0,1.47,0.125,10.915,0.125,10.915s-0.248,0.49,0.616,1.229
		c0.857,0.733,2.083,0.366,2.083,1.47c0,1.103,0,1.47-1.226,1.839c-1.229,0.369-3.927-1.474-3.437-2.331l-0.364-34.705
		c0,0,0.245-1.965-0.49-1.841l-0.858-1.594v-9.2h-3.434c0,0,0.854,1.351,0.609,1.596c0,0,1.229,0.245,0.983,1.47l0.368,26.736
		c0,0,0,1.35-1.351,0.49c0,0-1.47-2.207-8.338-2.085L94.236,76.713z M188.176,73.892c3.56,0.492,0.374-2.33,0.374-2.33
		c-3.315-4.169-31.522-36.917-31.522-36.917c-1.348-1.962-3.189,1.106-3.189,1.106c-0.49,0.98-53.718,36.303-53.718,36.303
		c-2.696,2.33,0.616,1.715,0.616,1.715C124.282,72.299,188.176,73.892,188.176,73.892z M190.385,67.146
		c0,2.085,0.742,1.103,0.62,1.717c-0.123,0.612,4.169,4.539,4.169,4.539c1.467,1.104,1.222-0.368,1.222-0.368l-0.123-14.841
		c0-1.35-1.474-2.576-1.474-2.576s-0.854,0.369-2.818,0.124s-1.348,1.472-1.348,1.472L190.385,67.146z"/>
	<path d="M194.677,76.652c0,0-1.288,0.062-1.226,1.104l1.348,74.564c-0.371,6.562,2.086,5.827,2.086,5.827h36.179v3.924
		l-37.526-0.245c-2.695,1.227-2.818-1.841-2.818-1.841c0.49-2.575-1.715-74.81-1.351-76.404c0.367-1.596-0.984-1.964-0.984-1.964
		h-1.348c-1.841,0-1.348,1.839-1.348,1.839l0.609,81.924c-1.59,2.821-2.818,0-2.818,0c0.494-0.488,0-85.234,0-85.234
		c-0.245-1.719,1.229-1.352,1.229-1.352h2.941c1.96,0,1.719-2.94,1.719-2.94s3.563,0.639,3.431,0.814"/>
	<path d="M194.498,76.763c0.033,0.008,0.172-0.049-0.069-0.049"/>
	<path d="M178.735,75.855l3.07-0.126l0.119,6.872h1.103c0,0,1.477,0.119,1.351,1.96c-0.123,1.84,0,81.066,0,81.066
		s-0.739,0.98,0.857,1.103l0.119,21.956c0,0-0.119,1.593,1.113,2.206h-4.295c0,0,1.225-1.595,1.344-3.31l0.123-19.871
		c0,0-1.467-0.854-1.593-2.573c0,0,0.249-76.161,0.249-78.615c0,0-0.613-1.838-1.596-1.104c0,0-1.477-0.244-1.348-1.715
		C179.351,83.704,179.718,76.101,178.735,75.855z"/>
	<path d="M263.974,193.223c0,0-27.966,0.123-32.5-0.245l-0.129-34.953h-35.44l-1.596-3.679c0,0,1.109-0.49,1.596-1.229
		c0,0,12.385-22.688,13.127-22.81l19.985-0.123c0,0,0.096,0.098,0.616-0.735v-5.274c0,0,0.123-1.474,1.222-1.229
		c1.109,0.247,11.286,0,11.286,0s3.924-0.368,4.046,3.313v8.338c0,0,0.613,4.783,1.106,4.906c0.49,0.123,11.65,21.095,11.65,21.095
		s1.96,1.593-0.487,1.839L256,162.563v28.698c0,0-0.123,0.611,0.861,0.857h6.623c0,0,1.834,0.245,0.123,1.35 M227.792,158.025
		c2.086,0.245,2.454-1.104,2.454-1.104c-0.245-0.858,7.113-13.124,7.113-13.124c0.49-0.366,0.609-1.962,0.609-1.962l0.126-14.961
		c0.126-1.35-1.229-1.106-1.229-1.106s-2.447,0.373-3.679,0c-1.222-0.364-1.222,1.474-1.222,1.474v11.529l-0.49,1.962
		c-3.56,3.065-4.782-0.735-4.782-0.735c-0.742-0.98,1.344-0.98,1.344-0.98c1.474,0.243,1.596-0.616,1.596-0.616l-0.123-4.657
		c-0.126-0.615-0.861-0.615-0.861-0.615h-17.661c-1.715-0.123-1.834,1.104-1.834,1.104l-12.634,22.075
		c-1.348,2.452,0.364,1.84,0.364,1.84L227.792,158.025z M251.953,191.261c1.106-0.125,1.106-0.739,1.106-0.739l0.116-30.658
		c2.576,0.121,0.987-2.454,0.987-2.454c-0.371,0-8.706-16.187-8.706-16.187c-1.106-0.737-1.351-3.558-1.351-3.558l-0.371-9.689
		c-0.245-2.697-2.94-1.715-2.94-1.715v14.963c-0.245,1.836-1.106,2.941-1.106,2.941l-5.64,11.774
		c-0.486,0.124-0.738,1.472-0.738,1.472l0.126,31.764c-0.249,1.84,2.447,1.595,2.447,1.595
		C242.141,190.034,251.953,191.261,251.953,191.261z"/>
	<path d="M260.046,178.873c0,0,2.821,1.595,2.209,4.293c0,0,2.699,0.369,3.063,3.679c0,0-0.245,1.348-1.47,0.368
		c0,0-1.964-2.209-4.534-0.98c0,0-2.334,0.858-0.857-0.98l1.712-1.351c0,0,0.245-3.923-3.557-4.292
		C256.612,179.609,256.49,177.401,260.046,178.873z"/>
	<path d="M258.944,189.791c0,0,2.821-4.539,5.395,0l1.841-0.247c0,0,1.229-1.962,3.189-0.614c0,0,2.328,2.696,2.699,4.171
		l-1.106,1.715c0,0-2.206-2.208-2.818-3.801c0,0-2.699-0.735-3.557,0.369l-0.612-1.35L258.944,189.791z"/>
	<path d="M273.047,189.667c0,0,3.309-1.225,4.537,3.312C277.584,192.978,275.624,192.978,273.047,189.667z"/>
	<path d="M186.709,190.645c0,0,1.043-0.551,1.043-1.899l0.06-21.035c0,0,0.738-1.717,1.963-0.123l-0.125,20.976
		c0,0-0.368,1.346,0.612,2.328c0,0,1.596-1.226,1.226-2.085l0.493-21.339c0,0,0.983-2.086,2.209,0l-0.49,21.462
		c0,0,0.119,1.226,0.609,1.715c0,0,1.964-0.49,1.722-2.204c0,0-0.371-20.974-0.126-20.974c0,0,1.348-2.33,2.208-0.123v22.073
		c0,0,0,0.861,0.854,1.351c0.861,0.492,1.232-0.735,1.232-0.735l0.123-22.934c0,0,1.226-2.33,2.206,0v21.954
		c0,0-0.371,0.98,1.593,1.838l0.126-23.181c0,0,1.348-2.818,2.696-0.488l-0.123,23.547h0.98c0,0,0.861-0.979,0.738-1.472
		l0.616-21.952c0,0,0.854-2.33,2.08,0.49c0,0-0.613,21.583,0,21.831c0,0,0,0.856,1.715,1.103l0.497-23.302
		c0,0,0.609-2.452,2.328-0.368v22.81l1.103,0.982c0,0,0.861-0.247,0.983-1.348v-20.972c0,0,0.371-4.05,2.695-1.227l-0.119,21.83
		c0,0,0,1.595,0.735,1.595c0.732,0,1.229-1.103,1.229-1.103l0.361-22.566c0,0,1.106-1.351,1.838,0l0.252,23.545l1.963,0.125
		l0.487-23.302c0,0,0.613-1.964,2.083,0.49l0.126,21.096c0,0-0.126,1.346,0.854,1.838L186.709,190.645z"/>
</g>
</svg>
